<?xml version="1.0" encoding="UTF-8"?>
<svg preserveAspectRatio="xMidYMid slice" xmlns="http://www.w3.org/2000/svg" width="34px" height="26px" viewBox="0 0 30 23" fill="none">
  <path d="M28.8125 0.156251L1.1875 0.15625C0.599805 0.15625 0.125 0.61709 0.125 1.1875L0.124999 21.8125C0.124999 22.3829 0.599804 22.8438 1.1875 22.8438L28.8125 22.8438C29.4002 22.8438 29.875 22.3829 29.875 21.8125L29.875 1.1875C29.875 0.617091 29.4002 0.156251 28.8125 0.156251ZM27.4844 3.72695L27.4844 20.5234L2.51562 20.5234L2.51562 3.72695L1.59922 3.03408L2.9041 1.40664L4.3252 2.47979L25.6781 2.47979L27.0992 1.40664L28.4041 3.03408L27.4844 3.72695ZM25.6781 2.47656L15 10.5332L4.32187 2.47656L2.90078 1.40342L1.5959 3.03086L2.5123 3.72373L13.8545 12.2831C14.1807 12.5291 14.582 12.6626 14.995 12.6626C15.4081 12.6626 15.8094 12.5291 16.1355 12.2831L27.4844 3.72695L28.4008 3.03408L27.0959 1.40664L25.6781 2.47656Z" fill="black"></path>
</svg>
