<?xml version="1.0" encoding="UTF-8"?>
<svg xmlns="http://www.w3.org/2000/svg" width="271" height="37" viewBox="0 0 271 37" fill="none">
  <path d="M0.5 36H-0.5V37H0.5V36ZM0.5 -1.90735e-06V-1H-0.5V-1.90735e-06H0.5ZM5.8 -1.90735e-06L6.63361 -0.552362L6.33699 -1H5.8V-1.90735e-06ZM23.525 26.75L22.6914 27.3024L24.525 30.0696V26.75H23.525ZM23.525 -1.90735e-06V-1H22.525V-1.90735e-06H23.525ZM28.825 -1.90735e-06H29.825V-1H28.825V-1.90735e-06ZM28.825 36V37H29.825V36H28.825ZM23.525 36L22.6912 36.552L22.9877 37H23.525V36ZM5.8 9.225L6.63384 8.67299L4.8 5.90283V9.225H5.8ZM5.8 36V37H6.8V36H5.8ZM1.5 36V-1.90735e-06H-0.5V36H1.5ZM0.5 0.999998H5.8V-1H0.5V0.999998ZM4.9664 0.552359L22.6914 27.3024L24.3586 26.1976L6.63361 -0.552362L4.9664 0.552359ZM24.525 26.75V-1.90735e-06H22.525V26.75H24.525ZM23.525 0.999998H28.825V-1H23.525V0.999998ZM27.825 -1.90735e-06V36H29.825V-1.90735e-06H27.825ZM28.825 35H23.525V37H28.825V35ZM24.3588 35.448L6.63384 8.67299L4.96616 9.777L22.6912 36.552L24.3588 35.448ZM4.8 9.225V36H6.8V9.225H4.8ZM5.8 35H0.5V37H5.8V35ZM39.7027 35L39.1966 35.8625L39.2051 35.8674L39.7027 35ZM34.9777 30.075L34.0932 30.5416L34.0977 30.5499L34.9777 30.075ZM34.9527 15.05L34.0638 14.5919L34.0611 14.5973L34.9527 15.05ZM39.6027 10.025L39.0904 9.16623L39.6027 10.025ZM53.5527 10.175L52.9997 11.0082L53.0047 11.0115L53.5527 10.175ZM57.8777 15.6L56.9506 15.9748L56.9529 15.9804L57.8777 15.6ZM59.0277 23.975V24.975H59.9678L60.0258 24.0367L59.0277 23.975ZM53.8027 23.975H52.8027V24.975H53.8027V23.975ZM53.8027 22.075H54.8028L54.8027 22.0644L53.8027 22.075ZM52.0027 15.125L51.2091 15.7334L51.2134 15.7389L52.0027 15.125ZM40.8277 15.35L41.6094 15.9737L40.8277 15.35ZM40.8277 29.4L40.0492 30.0276L40.0524 30.0315L40.8277 29.4ZM50.7527 30.725L51.2795 31.575L51.2827 31.573L50.7527 30.725ZM53.5527 27.525L53.855 26.5718L53.0284 26.3097L52.6519 27.0909L53.5527 27.525ZM58.6777 29.15L59.5949 29.5485L60.0366 28.5318L58.98 28.1968L58.6777 29.15ZM53.9027 34.775L54.428 35.626L54.4327 35.623L53.9027 34.775ZM37.1527 23.975H36.1527V24.975H37.1527V23.975ZM37.1527 19.9V18.9H36.1527V19.9H37.1527ZM56.4277 19.9H57.4277V18.9H56.4277V19.9ZM56.4277 23.975V24.975H57.4277V23.975H56.4277ZM46.7777 35.75C44.2434 35.75 42.0615 35.2005 40.2004 34.1326L39.2051 35.8674C41.4106 37.1329 43.9454 37.75 46.7777 37.75V35.75ZM40.2088 34.1375C38.3533 33.0487 36.9061 31.5426 35.8578 29.6001L34.0977 30.5499C35.316 32.8074 37.0189 34.5846 39.1967 35.8625L40.2088 34.1375ZM35.8622 29.6084C34.8329 27.6574 34.3027 25.3723 34.3027 22.725H32.3027C32.3027 25.6444 32.8892 28.2593 34.0933 30.5416L35.8622 29.6084ZM34.3027 22.725C34.3027 19.8991 34.8293 17.5022 35.8444 15.5027L34.0611 14.5973C32.8762 16.9312 32.3027 19.6509 32.3027 22.725H34.3027ZM35.8416 15.5081C36.8776 13.4979 38.3013 11.9659 40.1151 10.8838L39.0904 9.16623C36.9375 10.4507 35.2612 12.2687 34.0638 14.5919L35.8416 15.5081ZM40.1151 10.8838C41.9228 9.80524 44.049 9.25 46.5277 9.25V7.25C43.7398 7.25 41.2494 7.87809 39.0904 9.16623L40.1151 10.8838ZM46.5277 9.25C49.1181 9.25 51.2587 9.85247 52.9997 11.0082L54.1058 9.34185C51.9801 7.93086 49.4374 7.25 46.5277 7.25V9.25ZM53.0047 11.0115C54.7511 12.1557 56.0693 13.7946 56.9506 15.9748L58.8048 15.2252C57.7862 12.7054 56.221 10.7277 54.1008 9.33854L53.0047 11.0115ZM56.9529 15.9804C57.8484 18.1575 58.2228 20.7907 58.0296 23.9133L60.0258 24.0367C60.2327 20.6926 59.8404 17.7425 58.8026 15.2196L56.9529 15.9804ZM59.0277 22.975H53.8027V24.975H59.0277V22.975ZM54.8027 23.975V22.075H52.8027V23.975H54.8027ZM54.8027 22.0644C54.7684 18.8423 54.1555 16.264 52.7921 14.5111L51.2134 15.7389C52.1833 16.986 52.7704 19.041 52.8028 22.0856L54.8027 22.0644ZM52.7963 14.5166C51.41 12.7083 49.3188 11.875 46.7277 11.875V13.875C48.87 13.875 50.2955 14.5417 51.2091 15.7334L52.7963 14.5166ZM46.7277 11.875C43.887 11.875 41.5974 12.7822 40.0461 14.7263L41.6094 15.9737C42.6914 14.6178 44.3351 13.875 46.7277 13.875V11.875ZM40.0461 14.7263C38.5345 16.6205 37.8527 19.2607 37.8527 22.5H39.8527C39.8527 19.5059 40.4876 17.3795 41.6094 15.9737L40.0461 14.7263ZM37.8527 22.5C37.8527 25.6023 38.5402 28.1557 40.0492 30.0276L41.6063 28.7724C40.4819 27.3777 39.8527 25.3311 39.8527 22.5H37.8527ZM40.0524 30.0315C41.5958 31.9267 43.8075 32.825 46.5277 32.825V30.825C44.2813 30.825 42.693 30.1067 41.6031 28.7685L40.0524 30.0315ZM46.5277 32.825C48.3145 32.825 49.9123 32.4223 51.2795 31.575L50.226 29.875C49.2265 30.4944 48.0077 30.825 46.5277 30.825V32.825ZM51.2827 31.573C52.6566 30.7143 53.7121 29.4976 54.4536 27.9591L52.6519 27.0909C52.06 28.319 51.2489 29.2357 50.2227 29.877L51.2827 31.573ZM53.2505 28.4782L58.3755 30.1032L58.98 28.1968L53.855 26.5718L53.2505 28.4782ZM57.7606 28.7515C56.7871 30.9919 55.3261 32.7061 53.3727 33.927L54.4327 35.623C56.746 34.1772 58.4683 32.1414 59.5949 29.5485L57.7606 28.7515ZM53.3775 33.924C51.4091 35.1389 49.2174 35.75 46.7777 35.75V37.75C49.5714 37.75 52.1297 37.0444 54.4279 35.626L53.3775 33.924ZM38.1527 23.975V19.9H36.1527V23.975H38.1527ZM37.1527 20.9H56.4277V18.9H37.1527V20.9ZM55.4277 19.9V23.975H57.4277V19.9H55.4277ZM56.4277 22.975H37.1527V24.975H56.4277V22.975ZM59.6602 36L58.8563 35.4052L57.6762 37H59.6602V36ZM69.7602 22.35L70.564 22.9448L71.0041 22.3501L70.5641 21.7553L69.7602 22.35ZM59.8852 9V8H57.9016L59.0812 9.59469L59.8852 9ZM66.0852 9L66.8947 8.413L66.5953 8H66.0852V9ZM72.8102 18.275L72.0006 18.862L72.8147 19.9848L73.6229 18.8577L72.8102 18.275ZM79.4602 9V8H78.9467L78.6475 8.41731L79.4602 9ZM85.6602 9L86.4641 9.59469L87.6437 8H85.6602V9ZM75.7852 22.35L74.9812 21.7553L74.5407 22.3508L74.982 22.9458L75.7852 22.35ZM85.9102 36V37H87.897L86.7133 35.4042L85.9102 36ZM79.6852 36L78.8729 36.5832L79.1721 37H79.6852V36ZM72.8102 26.425L73.6225 25.8418L72.8131 24.7145L71.9999 25.839L72.8102 26.425ZM65.8852 36V37H66.396L66.6954 36.586L65.8852 36ZM60.464 36.5948L70.564 22.9448L68.9563 21.7552L58.8563 35.4052L60.464 36.5948ZM70.5641 21.7553L60.6891 8.40531L59.0812 9.59469L68.9562 22.9447L70.5641 21.7553ZM59.8852 10H66.0852V8H59.8852V10ZM65.2756 9.587L72.0006 18.862L73.6197 17.688L66.8947 8.413L65.2756 9.587ZM73.6229 18.8577L80.2729 9.58269L78.6475 8.41731L71.9975 17.6923L73.6229 18.8577ZM79.4602 10H85.6602V8H79.4602V10ZM84.8562 8.40531L74.9812 21.7553L76.5891 22.9447L86.4641 9.59469L84.8562 8.40531ZM74.982 22.9458L85.107 36.5958L86.7133 35.4042L76.5883 21.7542L74.982 22.9458ZM85.9102 35H79.6852V37H85.9102V35ZM80.4975 35.4168L73.6225 25.8418L71.9979 27.0082L78.8729 36.5832L80.4975 35.4168ZM71.9999 25.839L65.0749 35.414L66.6954 36.586L73.6204 27.011L71.9999 25.839ZM65.8852 35H59.6602V37H65.8852V35ZM104.356 36L104.549 36.9813L105.356 36.823V36H104.356ZM99.3562 36.425L99.3868 35.4255L99.3562 36.425ZM94.9812 35.475L95.3951 34.5646L94.9812 35.475ZM92.0813 32.725L92.9685 32.2636L92.9676 32.262L92.0813 32.725ZM91.1312 29.325L90.1317 29.3536L90.1319 29.361L90.1322 29.3684L91.1312 29.325ZM91.0813 1.5V0.499996H90.0813V1.5H91.0813ZM96.3313 1.5H97.3313V0.499996H96.3313V1.5ZM96.3562 27.95L95.3565 27.9708L95.3567 27.9812L95.3571 27.9916L96.3562 27.95ZM96.8812 29.975L96.0146 30.474L96.0165 30.4771L96.8812 29.975ZM99.7312 31.75L99.6166 32.7435L99.6305 32.7449L99.7312 31.75ZM104.356 31.575H105.356V30.4235L104.216 30.5849L104.356 31.575ZM85.9062 13.2H84.9062V14.2H85.9062V13.2ZM85.9062 9V8H84.9062V9H85.9062ZM104.356 9H105.356V8H104.356V9ZM104.356 13.2V14.2H105.356V13.2H104.356ZM104.164 35.0187C102.533 35.3385 100.941 35.473 99.3868 35.4255L99.3257 37.4245C101.038 37.477 102.78 37.3282 104.549 36.9813L104.164 35.0187ZM99.3868 35.4255C97.8651 35.3789 96.5402 35.0851 95.3951 34.5646L94.5674 36.3854C95.989 37.0315 97.5808 37.3711 99.3257 37.4245L99.3868 35.4255ZM95.3951 34.5646C94.3152 34.0738 93.5152 33.3151 92.9685 32.2636L91.194 33.1864C91.9473 34.6349 93.0807 35.7096 94.5674 36.3854L95.3951 34.5646ZM92.9676 32.262C92.4456 31.2628 92.1734 30.2717 92.1303 29.2816L90.1322 29.3684C90.1891 30.6783 90.5502 31.9539 91.1949 33.188L92.9676 32.262ZM92.1308 29.2964C92.0978 28.1413 92.0813 26.8344 92.0813 25.375H90.0813C90.0813 26.8489 90.098 28.1753 90.1317 29.3536L92.1308 29.2964ZM92.0813 25.375V1.5H90.0813V25.375H92.0813ZM91.0813 2.5H96.3313V0.499996H91.0813V2.5ZM95.3313 1.5V25.125H97.3313V1.5H95.3313ZM95.3313 25.125C95.3313 26.213 95.3396 27.162 95.3565 27.9708L97.356 27.9292C97.3396 27.138 97.3313 26.2036 97.3313 25.125H95.3313ZM95.3571 27.9916C95.3954 28.9114 95.5993 29.7526 96.0146 30.474L97.7479 29.476C97.5298 29.0974 97.3837 28.5886 97.3554 27.9084L95.3571 27.9916ZM96.0165 30.4771C96.7916 31.8122 98.0376 32.5612 99.6166 32.7434L99.8459 30.7566C98.8249 30.6388 98.1709 30.2045 97.746 29.4729L96.0165 30.4771ZM99.6305 32.7449C101.05 32.8886 102.676 32.8228 104.496 32.5651L104.216 30.5849C102.504 30.8272 101.046 30.878 99.832 30.7551L99.6305 32.7449ZM103.356 31.575V36H105.356V31.575H103.356ZM86.9062 13.2V9H84.9062V13.2H86.9062ZM85.9062 10H104.356V8H85.9062V10ZM103.356 9V13.2H105.356V9H103.356ZM104.356 12.2H85.9062V14.2H104.356V12.2ZM122.959 35L122.452 35.8625L122.461 35.8674L122.959 35ZM118.234 30.075L117.349 30.5416L117.354 30.5499L118.234 30.075ZM118.209 15.05L117.32 14.5919L117.317 14.5973L118.209 15.05ZM122.859 10.025L122.346 9.16623L122.859 10.025ZM136.809 10.175L136.256 11.0082L136.261 11.0115L136.809 10.175ZM141.134 15.6L140.206 15.9748L140.209 15.9804L141.134 15.6ZM142.284 23.975V24.975H143.224L143.282 24.0367L142.284 23.975ZM137.059 23.975H136.059V24.975H137.059V23.975ZM137.059 22.075H138.059L138.059 22.0644L137.059 22.075ZM135.259 15.125L134.465 15.7334L134.469 15.7389L135.259 15.125ZM124.084 15.35L124.865 15.9737L124.084 15.35ZM124.084 29.4L123.305 30.0276L123.308 30.0315L124.084 29.4ZM134.009 30.725L134.535 31.575L134.539 31.573L134.009 30.725ZM136.809 27.525L137.111 26.5718L136.284 26.3097L135.908 27.0909L136.809 27.525ZM141.934 29.15L142.851 29.5485L143.292 28.5318L142.236 28.1968L141.934 29.15ZM137.159 34.775L137.684 35.626L137.689 35.623L137.159 34.775ZM120.409 23.975H119.409V24.975H120.409V23.975ZM120.409 19.9V18.9H119.409V19.9H120.409ZM139.684 19.9H140.684V18.9H139.684V19.9ZM139.684 23.975V24.975H140.684V23.975H139.684ZM130.034 35.75C127.499 35.75 125.317 35.2005 123.456 34.1326L122.461 35.8674C124.667 37.1329 127.201 37.75 130.034 37.75V35.75ZM123.465 34.1375C121.609 33.0487 120.162 31.5426 119.114 29.6001L117.354 30.5499C118.572 32.8074 120.275 34.5846 122.453 35.8625L123.465 34.1375ZM119.118 29.6084C118.089 27.6574 117.559 25.3723 117.559 22.725H115.559C115.559 25.6444 116.145 28.2593 117.349 30.5416L119.118 29.6084ZM117.559 22.725C117.559 19.8991 118.085 17.5022 119.1 15.5027L117.317 14.5973C116.132 16.9312 115.559 19.6509 115.559 22.725H117.559ZM119.097 15.5081C120.134 13.4979 121.557 11.9659 123.371 10.8838L122.346 9.16623C120.193 10.4507 118.517 12.2687 117.32 14.5919L119.097 15.5081ZM123.371 10.8838C125.179 9.80524 127.305 9.25 129.784 9.25V7.25C126.996 7.25 124.505 7.87809 122.346 9.16623L123.371 10.8838ZM129.784 9.25C132.374 9.25 134.515 9.85247 136.256 11.0082L137.362 9.34185C135.236 7.93086 132.693 7.25 129.784 7.25V9.25ZM136.261 11.0115C138.007 12.1557 139.325 13.7946 140.206 15.9748L142.061 15.2252C141.042 12.7054 139.477 10.7277 137.357 9.33854L136.261 11.0115ZM140.209 15.9804C141.104 18.1575 141.479 20.7907 141.286 23.9133L143.282 24.0367C143.489 20.6926 143.096 17.7425 142.058 15.2196L140.209 15.9804ZM142.284 22.975H137.059V24.975H142.284V22.975ZM138.059 23.975V22.075H136.059V23.975H138.059ZM138.059 22.0644C138.024 18.8423 137.411 16.264 136.048 14.5111L134.469 15.7389C135.439 16.986 136.026 19.041 136.059 22.0856L138.059 22.0644ZM136.052 14.5166C134.666 12.7083 132.575 11.875 129.984 11.875V13.875C132.126 13.875 133.551 14.5417 134.465 15.7334L136.052 14.5166ZM129.984 11.875C127.143 11.875 124.853 12.7822 123.302 14.7263L124.865 15.9737C125.947 14.6178 127.591 13.875 129.984 13.875V11.875ZM123.302 14.7263C121.79 16.6205 121.109 19.2607 121.109 22.5H123.109C123.109 19.5059 123.743 17.3795 124.865 15.9737L123.302 14.7263ZM121.109 22.5C121.109 25.6023 121.796 28.1557 123.305 30.0276L124.862 28.7724C123.738 27.3777 123.109 25.3311 123.109 22.5H121.109ZM123.308 30.0315C124.852 31.9267 127.063 32.825 129.784 32.825V30.825C127.537 30.825 125.949 30.1067 124.859 28.7685L123.308 30.0315ZM129.784 32.825C131.57 32.825 133.168 32.4223 134.535 31.575L133.482 29.875C132.482 30.4944 131.264 30.825 129.784 30.825V32.825ZM134.539 31.573C135.912 30.7143 136.968 29.4976 137.709 27.9591L135.908 27.0909C135.316 28.319 134.505 29.2357 133.479 29.877L134.539 31.573ZM136.506 28.4782L141.631 30.1032L142.236 28.1968L137.111 26.5718L136.506 28.4782ZM141.016 28.7515C140.043 30.9919 138.582 32.7061 136.629 33.927L137.689 35.623C140.002 34.1772 141.724 32.1414 142.851 29.5485L141.016 28.7515ZM136.633 33.924C134.665 35.1389 132.473 35.75 130.034 35.75V37.75C132.827 37.75 135.386 37.0444 137.684 35.626L136.633 33.924ZM121.409 23.975V19.9H119.409V23.975H121.409ZM120.409 20.9H139.684V18.9H120.409V20.9ZM138.684 19.9V23.975H140.684V19.9H138.684ZM139.684 22.975H120.409V24.975H139.684V22.975ZM153.216 36L152.276 36.3412L152.515 37H153.216V36ZM143.416 9V8H141.989L142.476 9.34118L143.416 9ZM148.691 9L149.635 8.66893L149.4 8H148.691V9ZM155.866 29.45L154.922 29.7811L155.866 32.4705L156.81 29.7811L155.866 29.45ZM163.041 9V8H162.332L162.097 8.66893L163.041 9ZM168.316 9L169.256 9.34118L169.743 8H168.316V9ZM158.516 36V37H159.217L159.456 36.3412L158.516 36ZM154.156 35.6588L144.356 8.65882L142.476 9.34118L152.276 36.3412L154.156 35.6588ZM143.416 10H148.691V8H143.416V10ZM147.747 9.33107L154.922 29.7811L156.81 29.1189L149.635 8.66893L147.747 9.33107ZM156.81 29.7811L163.985 9.33107L162.097 8.66893L154.922 29.1189L156.81 29.7811ZM163.041 10H168.316V8H163.041V10ZM167.376 8.65882L157.576 35.6588L159.456 36.3412L169.256 9.34118L167.376 8.65882ZM158.516 35H153.216V37H158.516V35ZM175.744 35L175.238 35.8625L175.246 35.8674L175.744 35ZM171.019 30.075L170.134 30.5416L170.139 30.5499L171.019 30.075ZM170.994 15.05L170.105 14.5919L170.102 14.5973L170.994 15.05ZM175.644 10.025L175.131 9.16623L175.644 10.025ZM189.594 10.175L189.041 11.0082L189.046 11.0115L189.594 10.175ZM193.919 15.6L192.992 15.9748L192.994 15.9804L193.919 15.6ZM195.069 23.975V24.975H196.009L196.067 24.0367L195.069 23.975ZM189.844 23.975H188.844V24.975H189.844V23.975ZM189.844 22.075H190.844L190.844 22.0644L189.844 22.075ZM188.044 15.125L187.25 15.7334L187.254 15.7389L188.044 15.125ZM176.869 15.35L177.65 15.9737L176.869 15.35ZM176.869 29.4L176.09 30.0276L176.093 30.0315L176.869 29.4ZM186.794 30.725L187.321 31.575L187.324 31.573L186.794 30.725ZM189.594 27.525L189.896 26.5718L189.069 26.3097L188.693 27.0909L189.594 27.525ZM194.719 29.15L195.636 29.5485L196.078 28.5318L195.021 28.1968L194.719 29.15ZM189.944 34.775L190.469 35.626L190.474 35.623L189.944 34.775ZM173.194 23.975H172.194V24.975H173.194V23.975ZM173.194 19.9V18.9H172.194V19.9H173.194ZM192.469 19.9H193.469V18.9H192.469V19.9ZM192.469 23.975V24.975H193.469V23.975H192.469ZM182.819 35.75C180.284 35.75 178.103 35.2005 176.241 34.1326L175.246 35.8674C177.452 37.1329 179.986 37.75 182.819 37.75V35.75ZM176.25 34.1375C174.394 33.0487 172.947 31.5426 171.899 29.6001L170.139 30.5499C171.357 32.8074 173.06 34.5846 175.238 35.8625L176.25 34.1375ZM171.903 29.6084C170.874 27.6574 170.344 25.3723 170.344 22.725H168.344C168.344 25.6444 168.93 28.2593 170.134 30.5416L171.903 29.6084ZM170.344 22.725C170.344 19.8991 170.87 17.5022 171.885 15.5027L170.102 14.5973C168.917 16.9312 168.344 19.6509 168.344 22.725H170.344ZM171.883 15.5081C172.919 13.4979 174.342 11.9659 176.156 10.8838L175.131 9.16623C172.979 10.4507 171.302 12.2687 170.105 14.5919L171.883 15.5081ZM176.156 10.8838C177.964 9.80524 180.09 9.25 182.569 9.25V7.25C179.781 7.25 177.29 7.87809 175.131 9.16623L176.156 10.8838ZM182.569 9.25C185.159 9.25 187.3 9.85247 189.041 11.0082L190.147 9.34185C188.021 7.93086 185.478 7.25 182.569 7.25V9.25ZM189.046 11.0115C190.792 12.1557 192.11 13.7946 192.992 15.9748L194.846 15.2252C193.827 12.7054 192.262 10.7277 190.142 9.33854L189.046 11.0115ZM192.994 15.9804C193.889 18.1575 194.264 20.7907 194.071 23.9133L196.067 24.0367C196.274 20.6926 195.881 17.7425 194.844 15.2196L192.994 15.9804ZM195.069 22.975H189.844V24.975H195.069V22.975ZM190.844 23.975V22.075H188.844V23.975H190.844ZM190.844 22.0644C190.809 18.8423 190.196 16.264 188.833 14.5111L187.254 15.7389C188.224 16.986 188.811 19.041 188.844 22.0856L190.844 22.0644ZM188.837 14.5166C187.451 12.7083 185.36 11.875 182.769 11.875V13.875C184.911 13.875 186.336 14.5417 187.25 15.7334L188.837 14.5166ZM182.769 11.875C179.928 11.875 177.638 12.7822 176.087 14.7263L177.65 15.9737C178.732 14.6178 180.376 13.875 182.769 13.875V11.875ZM176.087 14.7263C174.576 16.6205 173.894 19.2607 173.894 22.5H175.894C175.894 19.5059 176.529 17.3795 177.65 15.9737L176.087 14.7263ZM173.894 22.5C173.894 25.6023 174.581 28.1557 176.09 30.0276L177.647 28.7724C176.523 27.3777 175.894 25.3311 175.894 22.5H173.894ZM176.093 30.0315C177.637 31.9267 179.848 32.825 182.569 32.825V30.825C180.322 30.825 178.734 30.1067 177.644 28.7685L176.093 30.0315ZM182.569 32.825C184.355 32.825 185.953 32.4223 187.321 31.575L186.267 29.875C185.268 30.4944 184.049 30.825 182.569 30.825V32.825ZM187.324 31.573C188.698 30.7143 189.753 29.4976 190.495 27.9591L188.693 27.0909C188.101 28.319 187.29 29.2357 186.264 29.877L187.324 31.573ZM189.292 28.4782L194.417 30.1032L195.021 28.1968L189.896 26.5718L189.292 28.4782ZM193.802 28.7515C192.828 30.9919 191.367 32.7061 189.414 33.927L190.474 35.623C192.787 34.1772 194.509 32.1414 195.636 29.5485L193.802 28.7515ZM189.419 33.924C187.45 35.1389 185.258 35.75 182.819 35.75V37.75C185.612 37.75 188.171 37.0444 190.469 35.626L189.419 33.924ZM174.194 23.975V19.9H172.194V23.975H174.194ZM173.194 20.9H192.469V18.9H173.194V20.9ZM191.469 19.9V23.975H193.469V19.9H191.469ZM192.469 22.975H173.194V24.975H192.469V22.975ZM217.895 36H216.895V37H217.895V36ZM217.62 19.5L216.631 19.6476L216.633 19.656L216.634 19.6644L217.62 19.5ZM216.62 16.4L215.729 16.8535L215.735 16.8657L216.62 16.4ZM214.545 14.1L213.994 14.9345L214.001 14.9392L214.545 14.1ZM208.42 13.7L208.759 14.6409L208.767 14.6379L208.776 14.6348L208.42 13.7ZM206.22 15.175L205.487 14.4952L205.478 14.505L206.22 15.175ZM204.745 17.875L203.795 17.563L203.791 17.5759L204.745 17.875ZM204.22 21.95L203.868 22.8857L205.22 23.3956V21.95H204.22ZM200.97 20.725H199.97V21.4168L200.618 21.6607L200.97 20.725ZM202.345 14.25L203.243 14.6908L203.244 14.6876L202.345 14.25ZM206.295 9.85L206.817 10.7031L206.295 9.85ZM217.22 9.175L217.648 8.27126L217.22 9.175ZM220.295 11.55L219.513 12.1731L219.519 12.1804L219.525 12.1876L220.295 11.55ZM222.12 14.725L221.18 15.0656L222.12 14.725ZM222.97 18.1L223.961 17.9649L222.97 18.1ZM223.195 36V37H224.195V36H223.195ZM198.92 36H197.92V37H198.92V36ZM198.92 9V8H197.92V9H198.92ZM203.595 9H204.595V8H203.595V9ZM203.595 16.8H202.595V17.8H203.595V16.8ZM204.22 16.8H205.22V15.8H204.22V16.8ZM204.22 36V37H205.22V36H204.22ZM218.895 36V22.725H216.895V36H218.895ZM218.895 22.725C218.895 21.6166 218.799 20.4866 218.607 19.3356L216.634 19.6644C216.809 20.7134 216.895 21.7334 216.895 22.725H218.895ZM218.609 19.3524C218.427 18.1304 218.06 16.9887 217.505 15.9343L215.735 16.8657C216.18 17.7113 216.48 18.6363 216.631 19.6476L218.609 19.3524ZM217.512 15.9465C216.948 14.8386 216.136 13.9393 215.089 13.2608L214.001 14.9392C214.755 15.4274 215.326 16.0614 215.729 16.8535L217.512 15.9465ZM215.096 13.2655C214.001 12.5422 212.632 12.225 211.07 12.225V14.225C212.375 14.225 213.323 14.4911 213.994 14.9345L215.096 13.2655ZM211.07 12.225C210.021 12.225 209.017 12.4034 208.065 12.7652L208.776 14.6348C209.49 14.3632 210.253 14.225 211.07 14.225V12.225ZM208.082 12.7591C207.09 13.1161 206.223 13.7008 205.487 14.4952L206.954 15.8548C207.484 15.2825 208.084 14.8839 208.759 14.6409L208.082 12.7591ZM205.478 14.505C204.746 15.3163 204.194 16.3492 203.795 17.563L205.695 18.187C206.03 17.1675 206.462 16.4003 206.963 15.845L205.478 14.505ZM203.791 17.5759C203.402 18.8176 203.22 20.2831 203.22 21.95H205.22C205.22 20.4169 205.389 19.1658 205.7 18.1741L203.791 17.5759ZM204.573 21.0143L201.323 19.7893L200.618 21.6607L203.868 22.8857L204.573 21.0143ZM201.97 20.725C201.97 18.4008 202.405 16.3979 203.243 14.6908L201.448 13.8092C200.453 15.8354 199.97 18.1492 199.97 20.725H201.97ZM203.244 14.6876C204.081 12.9686 205.27 11.6493 206.817 10.7031L205.774 8.99692C203.887 10.1507 202.443 11.7647 201.446 13.8124L203.244 14.6876ZM206.817 10.7031C208.347 9.76751 210.232 9.275 212.52 9.275V7.275C209.942 7.275 207.677 7.83249 205.774 8.99692L206.817 10.7031ZM212.52 9.275C214.286 9.275 215.696 9.5595 216.792 10.0787L217.648 8.27126C216.211 7.5905 214.488 7.275 212.52 7.275V9.275ZM216.792 10.0787C217.937 10.621 218.835 11.3222 219.513 12.1731L221.077 10.9269C220.189 9.81113 219.037 8.929 217.648 8.27126L216.792 10.0787ZM219.525 12.1876C220.254 13.0681 220.804 14.0264 221.18 15.0656L223.061 14.3844C222.604 13.1236 221.937 11.9653 221.066 10.9124L219.525 12.1876ZM221.18 15.0656C221.575 16.1558 221.84 17.2119 221.979 18.2351L223.961 17.9649C223.801 16.7881 223.499 15.5942 223.061 14.3844L221.18 15.0656ZM221.979 18.2351C222.125 19.304 222.195 20.2239 222.195 21H224.195C224.195 20.1095 224.115 19.096 223.961 17.9649L221.979 18.2351ZM222.195 21V36H224.195V21H222.195ZM223.195 35H217.895V37H223.195V35ZM199.92 36V9H197.92V36H199.92ZM198.92 10H203.595V8H198.92V10ZM202.595 9V16.8H204.595V9H202.595ZM203.595 17.8H204.22V15.8H203.595V17.8ZM203.22 16.8V36H205.22V16.8H203.22ZM204.22 35H198.92V37H204.22V35ZM244.157 36L244.349 36.9813L245.157 36.823V36H244.157ZM239.157 36.425L239.188 35.4255L239.157 36.425ZM234.782 35.475L235.196 34.5646L234.782 35.475ZM231.882 32.725L232.769 32.2636L232.768 32.262L231.882 32.725ZM230.932 29.325L229.932 29.3536L229.933 29.361L229.933 29.3684L230.932 29.325ZM230.882 1.5V0.499996H229.882V1.5H230.882ZM236.132 1.5H237.132V0.499996H236.132V1.5ZM236.157 27.95L235.157 27.9708L235.157 27.9812L235.158 27.9916L236.157 27.95ZM236.682 29.975L235.815 30.474L235.817 30.4771L236.682 29.975ZM239.532 31.75L239.417 32.7435L239.431 32.7449L239.532 31.75ZM244.157 31.575H245.157V30.4235L244.017 30.5849L244.157 31.575ZM225.707 13.2H224.707V14.2H225.707V13.2ZM225.707 9V8H224.707V9H225.707ZM244.157 9H245.157V8H244.157V9ZM244.157 13.2V14.2H245.157V13.2H244.157ZM243.965 35.0187C242.334 35.3385 240.742 35.473 239.188 35.4255L239.126 37.4245C240.839 37.477 242.58 37.3282 244.349 36.9813L243.965 35.0187ZM239.188 35.4255C237.666 35.3789 236.341 35.0851 235.196 34.5646L234.368 36.3854C235.79 37.0315 237.382 37.3711 239.126 37.4245L239.188 35.4255ZM235.196 34.5646C234.116 34.0738 233.316 33.3151 232.769 32.2636L230.995 33.1864C231.748 34.6349 232.881 35.7096 234.368 36.3854L235.196 34.5646ZM232.768 32.262C232.246 31.2628 231.974 30.2717 231.931 29.2816L229.933 29.3684C229.99 30.6783 230.351 31.9539 230.996 33.188L232.768 32.262ZM231.932 29.2964C231.899 28.1413 231.882 26.8344 231.882 25.375H229.882C229.882 26.8489 229.899 28.1753 229.932 29.3536L231.932 29.2964ZM231.882 25.375V1.5H229.882V25.375H231.882ZM230.882 2.5H236.132V0.499996H230.882V2.5ZM235.132 1.5V25.125H237.132V1.5H235.132ZM235.132 25.125C235.132 26.213 235.14 27.162 235.157 27.9708L237.157 27.9292C237.14 27.138 237.132 26.2036 237.132 25.125H235.132ZM235.158 27.9916C235.196 28.9114 235.4 29.7526 235.815 30.474L237.549 29.476C237.331 29.0974 237.185 28.5886 237.156 27.9084L235.158 27.9916ZM235.817 30.4771C236.592 31.8122 237.838 32.5612 239.417 32.7434L239.647 30.7566C238.626 30.6388 237.972 30.2045 237.547 29.4729L235.817 30.4771ZM239.431 32.7449C240.85 32.8886 242.476 32.8228 244.297 32.5651L244.017 30.5849C242.304 30.8272 240.847 30.878 239.633 30.7551L239.431 32.7449ZM243.157 31.575V36H245.157V31.575H243.157ZM226.707 13.2V9H224.707V13.2H226.707ZM225.707 10H244.157V8H225.707V10ZM243.157 9V13.2H245.157V9H243.157ZM244.157 12.2H225.707V14.2H244.157V12.2ZM251.15 34.55L250.575 35.3686L251.15 34.55ZM247.35 28.425L247.197 27.4367L246.187 27.5925L246.365 28.5995L247.35 28.425ZM252.7 27.6L253.672 27.3684L253.459 26.4711L252.547 26.6117L252.7 27.6ZM255 30.925L254.437 31.7517L254.444 31.7562L254.45 31.7606L255 30.925ZM263.35 31.125L262.768 30.3112L262.761 30.3163L263.35 31.125ZM264.25 26.725L263.442 27.315L263.455 27.3326L263.469 27.3497L264.25 26.725ZM262.225 25.5L261.877 26.4376L262.225 25.5ZM257.5 24.075L257.758 23.109L257.75 23.1069L257.5 24.075ZM251.975 22.15L251.514 23.0378L251.521 23.0411L251.527 23.0444L251.975 22.15ZM249.075 19.725L248.22 20.244L248.225 20.253L248.231 20.2619L249.075 19.725ZM249.525 12.075L250.339 12.6552L249.525 12.075ZM253.175 9.25L252.787 8.32836L252.783 8.32984L253.175 9.25ZM264.25 9.225L264.623 8.29718L264.25 9.225ZM268.175 12L267.406 12.6402L267.411 12.6455L268.175 12ZM269.975 16.175L270.154 17.1588L271.084 16.9893L270.967 16.051L269.975 16.175ZM264.625 17.15L263.634 17.2896L263.78 18.3204L264.804 18.1338L264.625 17.15ZM262.8 14.075L262.212 14.8843V14.8843L262.8 14.075ZM258.775 12.85L258.733 13.8491L258.734 13.8492L258.775 12.85ZM254.925 13.65L255.435 14.5101L255.445 14.5036L254.925 13.65ZM254 17.6L253.249 18.2606L253.256 18.2689L253.264 18.2771L254 17.6ZM261 20.175L261.249 19.2065L261.244 19.2053L261 20.175ZM266.4 22.125L265.926 23.0059L265.935 23.0104L266.4 22.125ZM269.25 24.65L268.383 25.1493L268.388 25.158L268.393 25.1667L269.25 24.65ZM267.2 34.45L266.586 33.6606L266.582 33.6632L267.2 34.45ZM259.175 35.725C256.035 35.725 253.578 35.0324 251.724 33.7314L250.575 35.3686C252.854 36.9676 255.747 37.725 259.175 37.725V35.725ZM251.724 33.7314C249.888 32.4431 248.758 30.6405 248.334 28.2505L246.365 28.5995C246.875 31.4762 248.278 33.7569 250.575 35.3686L251.724 33.7314ZM247.502 29.4133L252.852 28.5883L252.547 26.6117L247.197 27.4367L247.502 29.4133ZM251.727 27.8316C252.118 29.4765 253.033 30.7961 254.437 31.7517L255.562 30.0983C254.566 29.4206 253.947 28.5235 253.672 27.3684L251.727 27.8316ZM254.45 31.7606C255.865 32.6907 257.576 33.125 259.525 33.125V31.125C257.874 31.125 256.568 30.7593 255.549 30.0894L254.45 31.7606ZM259.525 33.125C261.28 33.125 262.79 32.7687 263.938 31.9337L262.761 30.3163C262.076 30.8146 261.036 31.125 259.525 31.125V33.125ZM263.931 31.9387C265.132 31.0806 265.75 29.858 265.75 28.375H263.75C263.75 29.2253 263.434 29.8361 262.768 30.3113L263.931 31.9387ZM265.75 28.375C265.75 27.5293 265.541 26.7389 265.03 26.1003L263.469 27.3497C263.625 27.5444 263.75 27.8541 263.75 28.375H265.75ZM265.057 26.135C264.554 25.4471 263.632 24.9554 262.572 24.5624L261.877 26.4376C262.884 26.8113 263.312 27.1362 263.442 27.315L265.057 26.135ZM262.572 24.5624C261.494 24.1622 259.882 23.6775 257.758 23.109L257.241 25.041C259.351 25.6058 260.889 26.0711 261.877 26.4376L262.572 24.5624ZM257.75 23.1069C255.468 22.5158 253.701 21.8951 252.422 21.2556L251.527 23.0444C252.982 23.7715 254.898 24.4342 257.249 25.0431L257.75 23.1069ZM252.435 21.2622C251.182 20.6126 250.377 19.9083 249.918 19.1881L248.231 20.2619C248.939 21.375 250.067 22.2874 251.514 23.0378L252.435 21.2622ZM249.929 19.206C249.476 18.4586 249.225 17.5215 249.225 16.35H247.225C247.225 17.8119 247.54 19.1247 248.22 20.244L249.929 19.206ZM249.225 16.35C249.225 14.9042 249.604 13.6865 250.339 12.6552L248.71 11.4948C247.711 12.8968 247.225 14.5291 247.225 16.35H249.225ZM250.339 12.6552C251.085 11.6087 252.145 10.775 253.566 10.1702L252.783 8.32984C251.071 9.05837 249.698 10.1079 248.71 11.4948L250.339 12.6552ZM253.563 10.1716C254.998 9.56719 256.711 9.25 258.725 9.25V7.25C256.505 7.25 254.518 7.59947 252.787 8.32836L253.563 10.1716ZM258.725 9.25C260.687 9.25 262.398 9.55848 263.877 10.1528L264.623 8.29718C262.868 7.59151 260.896 7.25 258.725 7.25V9.25ZM263.877 10.1528C265.358 10.7484 266.524 11.5814 267.406 12.6402L268.943 11.3598C267.825 10.0186 266.375 9.00165 264.623 8.29718L263.877 10.1528ZM267.411 12.6455C268.28 13.6746 268.805 14.883 268.982 16.299L270.967 16.051C270.744 14.267 270.069 12.6921 268.938 11.3545L267.411 12.6455ZM269.795 15.1912L264.445 16.1662L264.804 18.1338L270.154 17.1588L269.795 15.1912ZM265.615 17.0104C265.395 15.4503 264.647 14.18 263.387 13.2657L262.212 14.8843C263.019 15.47 263.488 16.2497 263.634 17.2896L265.615 17.0104ZM263.387 13.2657C262.153 12.3702 260.605 11.9231 258.815 11.8508L258.734 13.8492C260.244 13.9102 261.379 14.2798 262.212 14.8843L263.387 13.2657ZM258.817 11.8509C257.108 11.7789 255.609 12.0611 254.404 12.7964L255.445 14.5036C256.207 14.0389 257.275 13.7877 258.733 13.8491L258.817 11.8509ZM254.414 12.7899C253.166 13.5303 252.45 14.6456 252.45 16.075H254.45C254.45 15.4377 254.716 14.9364 255.435 14.5101L254.414 12.7899ZM252.45 16.075C252.45 16.8969 252.708 17.646 253.249 18.2606L254.75 16.9394C254.558 16.7207 254.45 16.4531 254.45 16.075H252.45ZM253.264 18.2771C253.822 18.8844 254.756 19.3501 255.866 19.7427L256.533 17.8573C255.476 17.4833 254.943 17.1489 254.736 16.9229L253.264 18.2771ZM255.866 19.7427C256.994 20.1419 258.63 20.6092 260.755 21.1447L261.244 19.2053C259.136 18.6741 257.572 18.2248 256.533 17.8573L255.866 19.7427ZM260.75 21.1434C262.977 21.7163 264.691 22.342 265.926 23.0058L266.873 21.2442C265.441 20.4746 263.556 19.8003 261.249 19.2066L260.75 21.1434ZM265.935 23.0104C267.154 23.6505 267.937 24.3756 268.383 25.1493L270.116 24.1507C269.429 22.9577 268.312 21.9995 266.864 21.2396L265.935 23.0104ZM268.393 25.1667C268.864 25.9457 269.125 26.9328 269.125 28.175H271.125C271.125 26.6505 270.802 25.2876 270.106 24.1333L268.393 25.1667ZM269.125 28.175C269.125 30.5613 268.271 32.3501 266.586 33.6606L267.814 35.2394C270.029 33.5165 271.125 31.122 271.125 28.175H269.125ZM266.582 33.6632C264.883 34.9967 262.453 35.725 259.175 35.725V37.725C262.729 37.725 265.65 36.9366 267.817 35.2368L266.582 33.6632Z" fill="white"></path>
</svg>
