<?xml version="1.0" encoding="UTF-8"?>
<svg preserveAspectRatio="xMidYMid slice" xmlns="http://www.w3.org/2000/svg" width="34px" height="27px" viewBox="0 0 27 22" fill="none">
  <path d="M26.9992 2.94689C26.043 3.35939 25.0023 3.65626 23.9305 3.77189C25.0433 3.11075 25.8767 2.06626 26.2742 0.834389C25.2299 1.45561 24.0859 1.89121 22.893 2.12189C22.3944 1.58885 21.7913 1.1642 21.1214 0.874412C20.4515 0.584623 19.7291 0.435901 18.9992 0.437514C16.0461 0.437514 13.6711 2.83126 13.6711 5.76876C13.6711 6.18126 13.7211 6.59376 13.8023 6.99064C9.38047 6.75939 5.43672 4.64689 2.81484 1.41251C2.33711 2.2285 2.08676 3.15759 2.08984 4.10314C2.08984 5.95314 3.03047 7.58439 4.46484 8.54376C3.61954 8.51047 2.79404 8.27813 2.05547 7.86564L2.05547 7.93126C2.05547 10.5219 3.88672 12.6688 6.32734 13.1625C5.86909 13.2815 5.39768 13.3424 4.92422 13.3438C4.57734 13.3438 4.24922 13.3094 3.91797 13.2625C4.59297 15.375 6.55859 16.9094 8.89922 16.9594C7.06797 18.3938 4.77422 19.2375 2.28359 19.2375C1.83672 19.2375 1.42422 19.2219 0.996093 19.1719C3.35859 20.6875 6.16172 21.5625 9.18047 21.5625C18.9805 21.5625 24.343 13.4438 24.343 6.39689C24.343 6.16564 24.343 5.93439 24.3273 5.70314C25.3648 4.94376 26.2742 4.00314 26.9992 2.94689Z" fill="black"></path>
</svg>
