<?xml version="1.0" encoding="UTF-8"?>
<svg preserveAspectRatio="xMidYMid slice" xmlns="http://www.w3.org/2000/svg" width="68px" height="68px" viewBox="0 0 38 38" fill="none">
  <path d="M10.375 19C10.375 20.7059 10.8808 22.3734 11.8286 23.7918C12.7763 25.2102 14.1233 26.3157 15.6994 26.9685C17.2754 27.6213 19.0096 27.7921 20.6827 27.4593C22.3557 27.1265 23.8926 26.305 25.0988 25.0988C26.305 23.8926 27.1265 22.3557 27.4593 20.6827C27.7921 19.0096 27.6213 17.2754 26.9685 15.6994C26.3157 14.1233 25.2102 12.7763 23.7918 11.8286C22.3734 10.8808 20.7059 10.375 19 10.375C16.7125 10.375 14.5187 11.2837 12.9012 12.9012C11.2837 14.5187 10.375 16.7125 10.375 19ZM25.375 19C25.375 20.2609 25.0011 21.4934 24.3006 22.5418C23.6001 23.5901 22.6045 24.4072 21.4396 24.8897C20.2747 25.3722 18.9929 25.4985 17.7563 25.2525C16.5197 25.0065 15.3838 24.3994 14.4922 23.5078C13.6006 22.6162 12.9935 21.4803 12.7475 20.2437C12.5015 19.0071 12.6278 17.7253 13.1103 16.5604C13.5928 15.3955 14.4099 14.3999 15.4582 13.6994C16.5066 12.9989 17.7391 12.625 19 12.625C20.6892 12.6299 22.3079 13.3032 23.5023 14.4977C24.6968 15.6921 25.3701 17.3108 25.375 19ZM0.625 10.75L0.625 27.25C0.625 29.9353 1.69174 32.5107 3.59054 34.4095C5.48935 36.3083 8.06468 37.375 10.75 37.375H27.25C29.9353 37.375 32.5106 36.3083 34.4095 34.4095C36.3083 32.5107 37.375 29.9353 37.375 27.25V10.75C37.375 8.06468 36.3083 5.48935 34.4095 3.59055C32.5106 1.69174 29.9353 0.625 27.25 0.625H10.75C8.06468 0.625 5.48935 1.69174 3.59054 3.59055C1.69174 5.48935 0.625 8.06468 0.625 10.75ZM27.25 2.875C29.3386 2.875 31.3416 3.70469 32.8185 5.18153C34.2953 6.65838 35.125 8.66142 35.125 10.75V27.25C35.125 29.3386 34.2953 31.3416 32.8185 32.8185C31.3416 34.2953 29.3386 35.125 27.25 35.125H10.75C8.66142 35.125 6.65838 34.2953 5.18153 32.8185C3.70468 31.3416 2.875 29.3386 2.875 27.25L2.875 10.75C2.875 8.66142 3.70468 6.65838 5.18153 5.18153C6.65838 3.70469 8.66142 2.875 10.75 2.875H27.25ZM9.25 7.375C9.62084 7.375 9.98335 7.48497 10.2917 7.69099C10.6 7.89702 10.8404 8.18986 10.9823 8.53247C11.1242 8.87508 11.1613 9.25208 11.089 9.61579C11.0166 9.97951 10.838 10.3136 10.5758 10.5758C10.3136 10.8381 9.97951 11.0166 9.6158 11.089C9.25208 11.1613 8.87508 11.1242 8.53247 10.9823C8.18986 10.8404 7.89702 10.6 7.69099 10.2917C7.48497 9.98335 7.375 9.62084 7.375 9.25C7.375 8.75272 7.57254 8.2758 7.92417 7.92417C8.27581 7.57254 8.75272 7.375 9.25 7.375Z" fill="white"></path>
</svg>
