<?xml version="1.0" standalone="no"?>
<!DOCTYPE svg PUBLIC "-//W3C//DTD SVG 20010904//EN"
 "http://www.w3.org/TR/2001/REC-SVG-20010904/DTD/svg10.dtd">
<svg version="1.0" xmlns="http://www.w3.org/2000/svg"
 width="2048.000000pt" height="2048.000000pt" viewBox="0 0 2048.000000 2048.000000"
 preserveAspectRatio="xMidYMid meet">
<metadata>
Created by potrace 1.14, written by Peter Selinger 2001-2017
</metadata>
<g transform="translate(0.000000,2048.000000) scale(0.100000,-0.100000)"
fill="#000000" stroke="none">
<path d="M9838 20475 c-2 -2 -58 -6 -123 -9 -169 -7 -378 -22 -460 -32 -16 -2
-59 -6 -95 -9 -36 -4 -76 -8 -89 -10 -14 -3 -52 -7 -86 -10 -59 -6 -100 -12
-100 -15 0 -1 -20 -3 -45 -5 -25 -2 -58 -6 -75 -9 -16 -3 -88 -14 -160 -26
-226 -36 -405 -70 -540 -101 -22 -5 -49 -11 -60 -13 -51 -10 -224 -52 -360
-88 -82 -22 -154 -41 -160 -42 -55 -13 -269 -78 -405 -123 -41 -14 -82 -26
-90 -28 -16 -3 -120 -40 -155 -55 -11 -4 -67 -25 -125 -45 -58 -20 -114 -40
-125 -45 -11 -5 -67 -28 -125 -50 -58 -22 -114 -45 -125 -50 -11 -5 -90 -39
-175 -76 -226 -97 -660 -304 -680 -324 -3 -3 -25 -15 -50 -28 -188 -94 -658
-374 -853 -508 -42 -30 -80 -54 -84 -54 -4 0 -16 -8 -27 -19 -12 -10 -59 -44
-106 -76 -80 -55 -439 -321 -450 -334 -3 -3 -21 -18 -40 -32 -31 -23 -211
-171 -265 -218 -263 -227 -363 -320 -605 -561 -561 -561 -976 -1080 -1432
-1790 -80 -126 -308 -514 -308 -525 0 -2 -14 -28 -31 -56 -45 -78 -229 -444
-229 -457 0 -7 -4 -12 -10 -12 -5 0 -10 -5 -10 -12 0 -6 -15 -44 -34 -82 -19
-39 -48 -105 -66 -146 -18 -41 -45 -103 -61 -138 -16 -35 -29 -68 -29 -73 0
-5 -4 -17 -10 -27 -24 -43 -116 -278 -185 -472 -33 -95 -86 -245 -89 -255 -5
-21 -58 -192 -72 -232 -7 -24 -16 -57 -19 -74 -3 -18 -10 -39 -14 -48 -8 -15
-86 -300 -95 -346 -2 -11 -13 -56 -25 -100 -11 -44 -22 -91 -25 -105 -2 -14
-10 -47 -16 -75 -6 -27 -13 -59 -16 -70 -33 -163 -55 -277 -59 -301 -2 -16 -6
-39 -9 -50 -2 -12 -7 -39 -10 -60 -4 -22 -11 -64 -16 -94 -5 -30 -12 -75 -15
-100 -3 -25 -8 -56 -10 -70 -7 -40 -13 -81 -20 -141 -3 -31 -7 -65 -9 -75 -2
-11 -7 -48 -10 -84 -3 -36 -8 -81 -11 -100 -13 -110 -26 -273 -42 -530 -15
-258 -8 -1099 12 -1264 2 -23 7 -79 10 -126 3 -47 7 -96 9 -110 2 -14 7 -59
10 -100 4 -41 8 -86 11 -100 2 -14 6 -50 9 -80 6 -56 15 -125 22 -169 2 -13 6
-45 10 -70 3 -25 8 -57 10 -71 3 -14 7 -41 10 -60 4 -31 8 -59 29 -175 2 -16
7 -40 9 -51 2 -12 7 -37 10 -55 5 -34 20 -110 31 -159 3 -14 8 -38 10 -55 3
-16 8 -37 10 -45 2 -8 6 -26 9 -40 3 -14 17 -74 31 -135 14 -60 28 -117 30
-125 20 -86 71 -279 100 -375 20 -66 38 -129 40 -140 7 -31 96 -308 105 -330
5 -11 25 -65 44 -120 56 -161 161 -436 215 -560 5 -11 16 -36 24 -55 9 -19 16
-39 17 -45 1 -5 8 -21 15 -35 19 -33 95 -200 95 -206 0 -10 218 -441 285 -564
92 -169 163 -294 205 -360 6 -8 40 -64 76 -125 36 -60 72 -117 80 -126 8 -8
14 -20 14 -25 0 -5 11 -22 25 -38 14 -16 25 -35 25 -42 0 -7 3 -14 8 -16 4 -1
47 -62 95 -135 74 -111 135 -196 264 -372 37 -49 236 -306 242 -311 3 -3 18
-21 33 -40 14 -19 34 -44 44 -55 11 -11 39 -45 64 -75 25 -30 47 -57 50 -60 3
-3 34 -39 70 -80 35 -41 71 -82 80 -91 8 -9 56 -60 105 -115 92 -101 419 -430
536 -539 55 -52 159 -145 299 -269 34 -30 144 -123 165 -139 6 -4 21 -17 35
-28 14 -12 43 -35 64 -52 21 -18 53 -44 70 -58 44 -37 381 -288 441 -329 28
-18 52 -36 55 -39 4 -5 247 -168 291 -196 9 -5 29 -19 45 -29 16 -11 45 -29
64 -41 19 -12 60 -38 90 -57 30 -19 71 -43 90 -54 19 -10 37 -22 38 -26 2 -5
8 -8 13 -8 5 0 37 -17 71 -38 35 -21 94 -55 131 -76 37 -20 82 -45 100 -55
119 -67 170 -93 355 -186 193 -96 358 -175 367 -175 2 0 32 -13 67 -29 80 -38
176 -78 308 -131 270 -107 382 -149 470 -176 8 -2 74 -24 145 -48 140 -48 310
-101 310 -97 0 1 14 -3 30 -9 29 -11 40 -14 85 -24 11 -3 24 -7 28 -10 5 -3
19 -7 33 -10 13 -3 60 -15 104 -27 44 -11 87 -22 95 -24 8 -2 62 -15 119 -30
93 -23 129 -31 221 -50 14 -3 57 -12 95 -21 70 -14 88 -18 155 -30 19 -4 44
-9 55 -11 11 -2 29 -6 40 -8 11 -2 31 -6 45 -8 14 -3 59 -11 100 -17 41 -6 86
-14 100 -16 14 -2 43 -7 65 -10 22 -2 49 -7 61 -9 11 -2 45 -7 75 -11 30 -3
65 -8 79 -10 14 -3 41 -7 60 -9 55 -6 151 -16 200 -21 25 -2 63 -6 85 -8 22
-3 74 -7 115 -10 41 -4 102 -9 134 -11 318 -27 1136 -27 1456 0 30 2 89 7 130
10 41 3 93 8 115 10 22 2 67 7 99 10 33 3 74 8 90 10 17 2 58 7 91 11 33 4 67
8 75 9 92 13 130 18 155 21 31 3 94 13 130 20 10 2 37 6 60 9 39 5 63 10 115
21 14 2 36 6 50 8 29 5 175 33 208 41 32 7 52 11 92 19 54 9 90 17 193 42 9 2
25 6 35 8 9 2 73 18 142 36 69 18 132 33 141 35 15 3 68 18 234 67 39 11 113
33 165 50 52 17 100 31 105 33 6 1 17 5 25 8 26 10 205 69 215 71 6 1 20 7 32
14 12 7 27 12 33 12 6 0 39 11 73 24 34 13 127 50 207 81 175 68 358 145 460
193 41 20 77 36 80 37 24 8 93 41 288 139 388 195 704 375 1010 578 41 26 76
48 78 48 3 0 10 5 17 10 7 6 82 59 167 118 212 148 528 385 625 470 11 10 58
49 105 87 47 38 87 72 90 75 3 3 36 32 75 65 38 33 76 67 85 75 9 8 66 60 126
115 222 203 565 556 764 785 30 35 59 68 65 74 5 6 26 31 47 56 20 25 55 65
77 90 22 25 41 48 41 52 0 4 6 13 13 20 27 27 145 177 243 308 176 237 258
355 459 665 47 71 164 263 190 310 12 22 31 56 43 75 11 19 35 62 53 95 48 90
54 100 60 105 6 6 8 10 156 305 61 121 121 243 133 270 13 28 36 79 52 115 61
131 78 173 78 185 0 8 3 15 8 17 8 3 61 133 154 378 74 196 249 721 261 785 2
11 7 27 10 35 3 8 9 29 13 45 4 17 8 35 10 40 4 14 75 286 80 310 3 11 6 25 8
30 1 6 6 26 10 45 4 19 16 71 26 115 11 44 22 96 25 115 3 19 10 51 15 70 5
19 11 51 14 70 2 19 7 47 10 63 3 15 8 39 11 55 7 37 53 318 60 367 3 23 7 50
9 61 2 11 7 47 10 80 4 32 8 73 11 89 2 17 7 50 9 75 3 25 8 65 10 90 8 71 15
149 21 225 3 39 8 93 10 120 27 300 27 1175 0 1470 -2 22 -6 78 -10 125 -9
115 -12 142 -19 208 -4 31 -9 77 -12 102 -5 45 -15 128 -20 165 -1 11 -5 43
-9 70 -3 28 -8 61 -10 75 -43 271 -51 317 -60 360 -3 14 -7 39 -9 56 -2 16 -6
39 -9 50 -4 10 -9 35 -12 54 -3 19 -8 43 -11 53 -3 11 -7 29 -9 40 -2 12 -13
65 -24 117 -12 52 -24 106 -26 120 -3 14 -7 35 -10 47 -3 13 -6 25 -6 28 0 3
-7 28 -15 57 -9 28 -17 59 -19 67 -2 9 -10 43 -19 76 -9 33 -19 69 -21 80 -6
27 -77 268 -110 375 -15 47 -27 90 -29 95 -1 6 -4 15 -7 20 -4 6 -10 24 -14
40 -9 33 -9 33 -17 55 -3 8 -22 62 -42 120 -39 109 -72 201 -86 235 -11 27
-23 58 -25 68 -2 4 -4 9 -5 12 -1 3 -3 8 -5 13 -1 4 -6 18 -12 32 -6 14 -25
61 -43 105 -50 126 -114 273 -207 475 -37 79 -234 473 -243 485 -4 6 -31 55
-60 110 -29 55 -58 107 -65 115 -8 8 -14 18 -14 23 -1 4 -16 32 -33 63 -18 30
-37 63 -43 72 -14 23 -66 111 -85 142 -76 126 -288 449 -306 467 -8 8 -14 18
-14 22 0 4 -8 18 -17 29 -10 12 -28 36 -41 54 -104 151 -377 504 -531 688
-326 389 -772 838 -1166 1174 -38 33 -72 63 -75 66 -13 16 -334 269 -471 372
-200 149 -436 312 -629 434 -36 22 -97 62 -137 87 -40 26 -75 47 -79 47 -3 0
-18 8 -32 19 -15 10 -47 29 -72 43 -25 14 -88 50 -141 80 -52 30 -102 58 -110
61 -8 4 -39 21 -69 38 -91 51 -478 244 -585 292 -55 25 -125 56 -155 70 -67
31 -399 167 -406 167 -3 0 -20 6 -37 14 -35 16 -286 107 -302 110 -5 1 -14 4
-20 8 -15 9 -426 140 -482 153 -10 3 -43 12 -73 20 -30 9 -62 18 -70 20 -62
18 -371 96 -395 100 -16 3 -38 8 -47 11 -9 3 -25 7 -35 9 -29 6 -263 54 -318
65 -28 6 -64 12 -80 15 -17 2 -70 11 -120 20 -136 24 -129 23 -290 45 -44 6
-93 13 -110 16 -29 4 -60 8 -160 19 -27 3 -66 7 -85 10 -19 3 -66 7 -105 10
-38 3 -86 7 -105 9 -19 3 -80 7 -135 11 -55 4 -127 9 -160 11 -81 6 -972 13
-977 9z"/>
</g>
</svg>
