<?xml version="1.0" standalone="no"?>
<!DOCTYPE svg PUBLIC "-//W3C//DTD SVG 20010904//EN"
 "http://www.w3.org/TR/2001/REC-SVG-20010904/DTD/svg10.dtd">
<svg version="1.0" xmlns="http://www.w3.org/2000/svg"
 width="512.000000pt" height="512.000000pt" viewBox="0 0 512.000000 512.000000"
 preserveAspectRatio="xMidYMid meet">
<metadata>
Created by potrace 1.14, written by Peter Selinger 2001-2017
</metadata>
<g transform="translate(0.000000,512.000000) scale(0.100000,-0.100000)"
fill="#000000" stroke="none">
<path d="M580 2515 l0 -2025 2008 0 2007 0 -63 35 c-35 18 -684 350 -1443 737
l-1379 703 0 92 c0 51 2 93 4 93 1 0 178 -86 392 -191 214 -105 515 -253 669
-329 825 -405 1380 -677 1540 -756 99 -49 206 -101 238 -116 l57 -28 0 103 -1
102 -92 45 c-51 25 -603 302 -1227 616 -624 315 -1235 622 -1357 683 l-223
112 0 89 c0 50 2 90 5 90 3 0 653 -319 1445 -710 791 -390 1442 -710 1445
-710 3 0 5 46 5 103 l0 102 -603 303 c-963 484 -2292 1153 -2295 1157 -2 1 -2
41 0 88 l3 86 374 -185 c205 -101 375 -184 376 -184 1 0 227 -111 501 -246
274 -136 567 -279 649 -319 83 -40 338 -165 569 -279 230 -113 420 -206 422
-206 3 0 3 45 2 101 l-3 100 -815 411 c-448 226 -1098 554 -1445 729 l-630
318 -3 85 c-1 47 0 86 3 86 8 0 178 -82 630 -305 385 -190 1010 -497 1720
-845 154 -75 340 -167 413 -204 l132 -66 0 102 0 103 -938 472 c-515 260
-1168 588 -1449 730 l-513 258 0 83 c0 77 1 83 19 77 10 -3 198 -88 417 -189
850 -390 1209 -555 1220 -558 7 -2 271 310 589 692 318 382 595 716 617 743
l40 47 -2016 0 -2016 0 0 -2025z"/>
</g>
</svg>
